<svg width="25" height="26" viewBox="0 0 25 26" fill="none" xmlns="http://www.w3.org/2000/svg">
<path d="M18.0645 13.2962C19.1457 12.1992 19.8784 10.8069 20.1706 9.29461C20.4628 7.78228 20.3015 6.21732 19.7068 4.79643C19.1122 3.37553 18.1108 2.16213 16.8285 1.30872C15.5462 0.455318 14.0403 0 12.5 0C10.9597 0 9.45376 0.455318 8.17149 1.30872C6.88921 2.16213 5.88781 3.37553 5.29317 4.79643C4.69852 6.21732 4.53716 7.78228 4.82937 9.29461C5.12159 10.8069 5.85433 12.1992 6.93549 13.2962C4.89467 14.0985 3.14213 15.4957 1.90538 17.3065C0.668628 19.1173 0.0047767 21.2581 2.51176e-07 23.451C-0.000116141 23.6562 0.0402197 23.8594 0.118701 24.049C0.197183 24.2387 0.312272 24.411 0.457386 24.5561C0.602501 24.7012 0.774796 24.8163 0.96442 24.8948C1.15404 24.9732 1.35728 25.0136 1.5625 25.0135H23.4375C23.6427 25.0136 23.846 24.9732 24.0356 24.8948C24.2252 24.8163 24.3975 24.7012 24.5426 24.5561C24.6877 24.411 24.8028 24.2387 24.8813 24.049C24.9598 23.8594 25.0001 23.6562 25 23.451C24.9952 21.2581 24.3314 19.1173 23.0946 17.3065C21.8579 15.4957 20.1053 14.0985 18.0645 13.2962ZM12.5 3.13846C13.4271 3.13846 14.3334 3.41337 15.1042 3.92844C15.8751 4.44351 16.4759 5.1756 16.8307 6.03213C17.1855 6.88866 17.2783 7.83116 17.0974 8.74044C16.9166 9.64973 16.4701 10.485 15.8146 11.1405C15.159 11.7961 14.3238 12.2425 13.4145 12.4234C12.5052 12.6043 11.5627 12.5114 10.7062 12.1566C9.84964 11.8019 9.11755 11.201 8.60249 10.4302C8.08742 9.65934 7.8125 8.75306 7.8125 7.82596C7.81388 6.58318 8.30818 5.39169 9.18696 4.51292C10.0657 3.63414 11.2572 3.13983 12.5 3.13846ZM3.28065 21.8885C3.6437 20.1251 4.6034 18.5408 5.99808 17.4024C7.39276 16.264 9.13719 15.641 10.9375 15.6385H14.0625C15.8628 15.641 17.6072 16.264 19.0019 17.4024C20.3966 18.5408 21.3563 20.1251 21.7193 21.8885H3.28065Z" fill="#C3C3C3"/>
</svg>
