<svg width="15" height="13" viewBox="0 0 15 13" fill="none" xmlns="http://www.w3.org/2000/svg">
<path d="M0 3.96429H11.7857V2.46429H0V3.96429ZM13.9286 0C13.3368 0 12.8571 0.479695 12.8571 1.07143V5.35714C12.8571 5.94888 13.3368 6.42857 13.9286 6.42857C14.5203 6.42857 15 5.94888 15 5.35714V1.07143C15 0.479695 14.5203 0 13.9286 0ZM7.5 8.89286V7.5C7.5 6.90827 7.02031 6.42857 6.42857 6.42857C5.83684 6.42857 5.35714 6.90827 5.35714 7.5V11.7857C5.35714 12.3774 5.83684 12.8571 6.42857 12.8571C7.02031 12.8571 7.5 12.3774 7.5 11.7857V10.3929H15V8.89286H7.5ZM0 10.3929H4.28571V8.89286H0V10.3929Z" fill="black"/>
</svg>
