<svg width="20" height="18" viewBox="0 0 20 18" fill="none" xmlns="http://www.w3.org/2000/svg">
<path fill-rule="evenodd" clip-rule="evenodd" d="M15.3053 0.213493C17.5007 0.833802 19.2093 2.56131 19.8053 4.76349C20.3182 6.87259 19.6169 9.092 17.9853 10.5235L10.7153 17.7035C10.3264 18.0846 9.70411 18.0846 9.31527 17.7035L1.98527 10.5235C0.353654 9.092 -0.347617 6.87259 0.165269 4.76349C0.761282 2.56131 2.46981 0.833802 4.66527 0.213493C6.51095 -0.2924 8.48725 0.112518 9.98527 1.30349C11.4833 0.112518 13.4596 -0.2924 15.3053 0.213493ZM9.98527 15.5935L16.6153 9.09349C17.7026 8.13941 18.1559 6.65181 17.7853 5.25349C17.3605 3.74981 16.1876 2.57315 14.6853 2.14349C13.2079 1.75408 11.6365 2.21627 10.6053 3.34349C10.2164 3.72464 9.59411 3.72464 9.20527 3.34349C8.42374 2.51363 7.34468 2.02805 6.20527 1.99349C5.86675 1.99884 5.53046 2.04928 5.20527 2.14349C3.70296 2.57315 2.53008 3.74981 2.10527 5.25349C1.75353 6.66721 2.23873 8.15774 3.35527 9.09349L9.98527 15.5935Z" fill="white"/>
</svg>
