<svg width="20" height="26" viewBox="0 0 20 26" fill="none" xmlns="http://www.w3.org/2000/svg">
<path d="M0 0V25.5556H2.22224V23.8889H3.88889V25.5556H6.66667V23.8889H8.33332V25.5556H11.6667V23.8889H13.3333V25.5556H16.1111V23.8889H17.7778V25.5556H20V0H0ZM11.1111 19.4445H3.33336V17.7778H11.1111V19.4445ZM11.1111 14.4445H3.33336V12.7778H11.1111V14.4445ZM11.1111 10H3.33336V8.33337H11.1111V10ZM16.6667 19.4445H13.3333V17.7778H16.6667V19.4445ZM16.6667 14.4445H13.3333V12.7778H16.6667V14.4445ZM16.6667 10H13.3333V8.33337H16.6667V10ZM16.6667 5.55555H3.33336V3.88889H16.6667V5.55555Z" fill="#C3C3C3"/>
</svg>
